<svg width="140" height="100" xmlns="http://www.w3.org/2000/svg">

 <g>
  <title>background</title>
  <rect fill="#ffffff" id="canvas_background" height="102" width="142" y="-1" x="-1"/>
 </g>
 <g>
  <title>Layer 1</title>
  <g id="svg_1">
   <path id="svg_2" fill="#0f2331" d="m94.928,77.062l-5.969,-6.244c1.746,-1.918 2.82,-4.458 2.82,-7.25c0,-5.953 -4.843,-10.796 -10.796,-10.796s-10.796,4.843 -10.796,10.796s4.843,10.796 10.796,10.796c2.441,0 4.688,-0.824 6.499,-2.196l6.001,6.277c0.196,0.205 0.459,0.309 0.723,0.309c0.249,0 0.497,-0.092 0.691,-0.277c0.399,-0.383 0.413,-1.016 0.031,-1.415zm-22.741,-13.495c0,-4.85 3.946,-8.796 8.796,-8.796s8.796,3.946 8.796,8.796s-3.946,8.796 -8.796,8.796s-8.796,-3.946 -8.796,-8.796z"/>
   <path id="svg_3" fill="#0f2331" d="m48.02,36.92l13,0c0.553,0 1,-0.447 1,-1s-0.447,-1 -1,-1l-13,0c-0.553,0 -1,0.447 -1,1s0.448,1 1,1z"/>
   <path id="svg_4" fill="#0f2331" d="m48.02,64.92c-0.553,0 -1,0.447 -1,1s0.447,1 1,1l14.167,0c0.553,0 1,-0.447 1,-1s-0.447,-1 -1,-1l-14.167,0z"/>
   <path id="svg_5" fill="#0f2331" d="m78.02,41.92c0,-0.553 -0.447,-1 -1,-1l-29,0c-0.553,0 -1,0.447 -1,1s0.447,1 1,1l29,0c0.553,0 1,-0.447 1,-1z"/>
   <path id="svg_6" fill="#0f2331" d="m68.187,52.92l-20.167,0c-0.553,0 -1,0.447 -1,1s0.447,1 1,1l20.167,0c0.553,0 1,-0.447 1,-1s-0.447,-1 -1,-1z"/>
   <path id="svg_7" fill="#0f2331" d="m66.187,59.92c0,-0.553 -0.447,-1 -1,-1l-17.167,0c-0.553,0 -1,0.447 -1,1s0.447,1 1,1l17.167,0c0.553,0 1,-0.447 1,-1z"/>
   <path id="svg_8" fill="#0f2331" d="m48.02,46.92c-0.553,0 -1,0.447 -1,1s0.447,1 1,1l14,0c0.553,0 1,-0.447 1,-1s-0.447,-1 -1,-1l-14,0z"/>
   <path id="svg_9" fill="#0f2331" d="m78.02,47.92c0,-0.553 -0.447,-1 -1,-1l-7,0c-0.553,0 -1,0.447 -1,1s0.447,1 1,1l7,0c0.553,0 1,-0.447 1,-1z"/>
   <path id="svg_10" fill="#0f2331" d="m65.307,47.21c-0.181,0.189 -0.29,0.449 -0.29,0.71c0,0.26 0.109,0.52 0.3,0.71c0.18,0.189 0.439,0.29 0.7,0.29c0.26,0 0.52,-0.101 0.71,-0.29c0.189,-0.19 0.29,-0.45 0.29,-0.71c0,-0.261 -0.101,-0.521 -0.29,-0.71c-0.37,-0.37 -1.04,-0.37 -1.42,0z"/>
   <path id="svg_11" fill="#0f2331" d="m67.187,74.92l-24,0l0,-48l7,0l0,2c0,0.553 0.447,1 1,1l23,0c0.553,0 1,-0.447 1,-1l0,-2l7,0l0,20c0,0.553 0.447,1 1,1s1,-0.447 1,-1l0,-21c0,-0.553 -0.447,-1 -1,-1l-8,0l0,-2c0,-0.553 -0.447,-1 -1,-1l-6,0l0,-2c0,-0.553 -0.447,-1 -1,-1l-9,0c-0.553,0 -1,0.447 -1,1l0,2l-6,0c-0.553,0 -1,0.447 -1,1l0,2l-8,0c-0.553,0 -1,0.447 -1,1l0,50c0,0.553 0.447,1 1,1l25,0c0.553,0 1,-0.447 1,-1s-0.447,-1 -1,-1zm-8,-54l7,0l0,2l0,2l-7,0l0,-2l0,-2zm-7,3l5,0l0,2c0,0.553 0.447,1 1,1l9,0c0.553,0 1,-0.447 1,-1l0,-2l5,0l0,2l0,2l-21,0l0,-2l0,-2z"/>
  </g>
  <g id="svg_12"/>
  <g id="svg_13"/>
  <g id="svg_14"/>
  <g id="svg_15"/>
  <g id="svg_16"/>
  <g id="svg_17"/>
  <g id="svg_18"/>
  <g id="svg_19"/>
  <g id="svg_20"/>
  <g id="svg_21"/>
  <g id="svg_22"/>
  <g id="svg_23"/>
  <g id="svg_24"/>
  <g id="svg_25"/>
  <g id="svg_26"/>
 </g>
</svg>