<?xml version="1.0" encoding="utf-8"?>
<!-- Generator: Adobe Illustrator 19.0.0, SVG Export Plug-In . SVG Version: 6.00 Build 0)  -->
<svg version="1.1" id="Layer_1" xmlns="http://www.w3.org/2000/svg" xmlns:xlink="http://www.w3.org/1999/xlink" x="0px" y="0px"
	 viewBox="0 0 300 300" style="enable-background:new 0 0 300 300;" xml:space="preserve">
<style type="text/css">
	.st0{fill:#42EA9C;}
	.st1{fill:#212121;}
</style>
<ellipse id="XMLID_1_" class="st0" cx="149.8" cy="150.3" rx="148.5" ry="147.9"/>
<g id="XMLID_28_">
	<g id="XMLID_44_">
		<g id="XMLID_45_">
			<path id="XMLID_47_" class="st1" d="M207.7,117.2c-3.3-3.3-7.2-4.9-11.8-4.9h-14.7l-3.3-8.9c-0.8-2.1-2.3-4-4.5-5.5
				c-2.2-1.5-4.5-2.3-6.8-2.3h-33.5c-2.3,0-4.6,0.8-6.8,2.3c-2.2,1.5-3.7,3.4-4.5,5.5l-3.3,8.9h-14.7c-4.6,0-8.6,1.6-11.8,4.9
				c-3.3,3.3-4.9,7.2-4.9,11.8v58.6c0,4.6,1.6,8.6,4.9,11.8c3.3,3.3,7.2,4.9,11.8,4.9h92.1c4.6,0,8.6-1.6,11.8-4.9
				c3.3-3.3,4.9-7.2,4.9-11.8v-58.6C212.6,124.4,211,120.5,207.7,117.2z M170.5,179.1c-5.7,5.7-12.6,8.6-20.7,8.6s-15-2.9-20.7-8.6
				c-5.7-5.7-8.6-12.6-8.6-20.7c0-8.1,2.9-15,8.6-20.7c5.7-5.7,12.6-8.6,20.7-8.6s15,2.9,20.7,8.6c5.7,5.7,8.6,12.6,8.6,20.7
				C179.1,166.4,176.3,173.3,170.5,179.1z"/>
			<path id="XMLID_46_" class="st1" d="M149.8,139.5c-5.2,0-9.6,1.8-13.3,5.5c-3.7,3.7-5.5,8.1-5.5,13.3c0,5.2,1.8,9.6,5.5,13.3
				c3.7,3.7,8.1,5.5,13.3,5.5c5.2,0,9.6-1.8,13.3-5.5c3.7-3.7,5.5-8.1,5.5-13.3c0-5.2-1.8-9.6-5.5-13.3
				C159.5,141.4,155,139.5,149.8,139.5z"/>
		</g>
	</g>
	<g id="XMLID_43_">
	</g>
	<g id="XMLID_42_">
	</g>
	<g id="XMLID_41_">
	</g>
	<g id="XMLID_40_">
	</g>
	<g id="XMLID_39_">
	</g>
	<g id="XMLID_38_">
	</g>
	<g id="XMLID_37_">
	</g>
	<g id="XMLID_36_">
	</g>
	<g id="XMLID_35_">
	</g>
	<g id="XMLID_34_">
	</g>
	<g id="XMLID_33_">
	</g>
	<g id="XMLID_32_">
	</g>
	<g id="XMLID_31_">
	</g>
	<g id="XMLID_30_">
	</g>
	<g id="XMLID_29_">
	</g>
</g>
</svg>
