<svg width="184" height="235" viewBox="0 0 184 235" fill="none" xmlns="http://www.w3.org/2000/svg">
<path d="M165.5 145.2C165.5 185.13 129.5 217.8 90 217.8C42 217.8 17.625 185.13 17.625 145.2C17.625 105.27 50.1938 72.6 90 72.6V121L150.312 60.5L90 0V55C36.925 55 0 91.96 0 145.2C0 198.44 36.925 234.5 90 234.5C143.075 234.5 183.5 198.44 183.5 145.2H165.5Z" transform="translate(0.00012207)" fill="white"/>
<path d="M41.9995 46H31.9805V7.37988L20.02 11.0894V2.94238L40.9248 -4.5459H41.9995V46ZM92.4067 25.1299C92.4067 32.1097 90.9622 37.4486 88.0732 41.1465C85.1842 44.8444 80.9548 46.6934 75.3848 46.6934C69.8841 46.6934 65.6777 44.8791 62.7656 41.2505C59.8535 37.6219 58.3628 32.4217 58.2935 25.6499V16.3589C58.2935 9.30973 59.7495 3.95931 62.6616 0.307617C65.5968 -3.34408 69.8148 -5.16992 75.3154 -5.16992C80.8161 -5.16992 85.0225 -3.35563 87.9346 0.272949C90.8467 3.87842 92.3374 9.06706 92.4067 15.8389V25.1299ZM82.3877 14.9375C82.3877 10.7542 81.8099 7.71501 80.6543 5.81982C79.5218 3.90153 77.7422 2.94238 75.3154 2.94238C72.958 2.94238 71.2131 3.85531 70.0806 5.68115C68.9712 7.48389 68.3818 10.3151 68.3125 14.1748V26.4473C68.3125 30.5612 68.8672 33.6235 69.9766 35.6343C71.1091 37.6219 72.9118 38.6157 75.3848 38.6157C77.8346 38.6157 79.6027 37.6566 80.689 35.7383C81.7752 33.82 82.3415 30.8848 82.3877 26.9326V14.9375Z" transform="translate(37 138)" fill="white"/>
</svg>
