<svg width="193" height="242" viewBox="0 0 193 242" fill="none" xmlns="http://www.w3.org/2000/svg">
<path d="M168.875 145.2C168.875 185.13 136.306 217.8 96.5 217.8C56.6938 217.8 24.125 185.13 24.125 145.2C24.125 105.27 56.6938 72.6 96.5 72.6V121L156.813 60.5L96.5 0V48.4C43.425 48.4 0 91.96 0 145.2C0 198.44 43.425 242 96.5 242C149.575 242 193 198.44 193 145.2H168.875Z" fill="white"/>
<path d="M37.355 28.3242H42.6938C45.2362 28.3242 47.1198 27.6886 48.3447 26.4175C49.5697 25.1463 50.1821 23.4591 50.1821 21.356C50.1821 19.3221 49.5697 17.7389 48.3447 16.6064C47.1429 15.474 45.4788 14.9077 43.3525 14.9077C41.4342 14.9077 39.828 15.4393 38.5337 16.5024C37.2394 17.5425 36.5923 18.9061 36.5923 20.5933H26.5732C26.5732 17.9585 27.2782 15.6011 28.688 13.521C30.1209 11.4178 32.1086 9.77686 34.6509 8.59814C37.2163 7.41943 40.036 6.83008 43.1099 6.83008C48.4487 6.83008 52.632 8.11279 55.6597 10.6782C58.6873 13.2205 60.2012 16.7336 60.2012 21.2173C60.2012 23.5285 59.4963 25.6548 58.0864 27.5962C56.6766 29.5376 54.8276 31.0283 52.5396 32.0684C55.3823 33.0853 57.4971 34.6107 58.8838 36.6445C60.2936 38.6784 60.9985 41.082 60.9985 43.8555C60.9985 48.3392 59.3576 51.9331 56.0757 54.6372C52.8169 57.3413 48.495 58.6934 43.1099 58.6934C38.0715 58.6934 33.946 57.3644 30.7334 54.7065C27.5439 52.0487 25.9492 48.5356 25.9492 44.1675H35.9683C35.9683 46.0627 36.6732 47.6112 38.083 48.813C39.516 50.0148 41.2725 50.6157 43.3525 50.6157C45.7331 50.6157 47.5936 49.9917 48.9341 48.7437C50.2977 47.4725 50.9795 45.7969 50.9795 43.7168C50.9795 38.6784 48.2061 36.1592 42.6592 36.1592H37.355V28.3242ZM101.907 37.1299C101.907 44.1097 100.462 49.4486 97.5732 53.1465C94.6842 56.8444 90.4548 58.6934 84.8848 58.6934C79.3841 58.6934 75.1777 56.8791 72.2656 53.2505C69.3535 49.6219 67.8628 44.4217 67.7935 37.6499V28.3589C67.7935 21.3097 69.2495 15.9593 72.1616 12.3076C75.0968 8.65592 79.3148 6.83008 84.8154 6.83008C90.3161 6.83008 94.5225 8.64437 97.4346 12.2729C100.347 15.8784 101.837 21.0671 101.907 27.8389V37.1299ZM91.8877 26.9375C91.8877 22.7542 91.3099 19.715 90.1543 17.8198C89.0218 15.9015 87.2422 14.9424 84.8154 14.9424C82.458 14.9424 80.7131 15.8553 79.5806 17.6812C78.4712 19.4839 77.8818 22.3151 77.8125 26.1748V38.4473C77.8125 42.5612 78.3672 45.6235 79.4766 47.6343C80.609 49.6219 82.4118 50.6157 84.8848 50.6157C87.3346 50.6157 89.1027 49.6566 90.189 47.7383C91.2752 45.82 91.8415 42.8848 91.8877 38.9326V26.9375Z" transform="translate(32 123)" fill="white"/>
</svg>
