<?xml version="1.0" encoding="utf-8"?>
<!-- Generator: Adobe Illustrator 19.0.0, SVG Export Plug-In . SVG Version: 6.00 Build 0)  -->
<svg version="1.1" id="Layer_1" xmlns="http://www.w3.org/2000/svg" xmlns:xlink="http://www.w3.org/1999/xlink" x="0px" y="0px"
	 viewBox="0 0 300 300" style="enable-background:new 0 0 300 300;" xml:space="preserve">
<style type="text/css">
	.st0{fill:#42EA9C;}
	.st1{fill:#212121;}
</style>
<ellipse id="XMLID_1_" class="st0" cx="149.8" cy="150.3" rx="148.5" ry="147.9"/>
<g id="XMLID_2_">
	<g id="XMLID_18_">
		<g id="XMLID_19_">
			<path id="XMLID_25_" class="st1" d="M172.7,195.2c-1,1.4-2.5,2.5-4.2,2.9l-8.4,2.3c-0.7,0.2-1.3,0.3-2,0.3c-1.5,0-3-0.5-4.3-1.4
				c-1.8-1.3-3-3.3-3.2-5.5l-0.7-8.6c-0.2-1.8,0.3-3.5,1.3-5l0.3-0.4h-29.8c-2.4,0-4.4-2-4.4-4.4c0-2.4,2-4.4,4.4-4.4h36.1l8.1-11.5
				h-44.2c-2.4,0-4.4-2-4.4-4.4c0-2.4,2-4.4,4.4-4.4l50.4-0.1l18.9-27.1v-20.1c0-3.3-2.6-6-5.8-6h-14.5v11.4c0,5.4-4.4,9.7-9.8,9.7
				h-29.1c-5.4,0-9.7-4.3-9.7-9.7V97.5h-14.6c-3.3,0-6,2.7-6,6v102.4c0,3.3,2.7,6.1,6,6.1h77.7c3.3,0,5.8-2.8,5.8-6.1v-36.6
				L172.7,195.2z M121.7,130.4H171c2.4,0,4.4,2,4.4,4.4s-2,4.4-4.4,4.4h-49.2c-2.4,0-4.4-2-4.4-4.4S119.3,130.4,121.7,130.4z"/>
			<path id="XMLID_22_" class="st1" d="M131.9,112.9h29.1c2.2,0,4-1.8,4-4V92.2c0-2.2-1.8-4-4-4h-4.4c0-5.6-4.6-10.2-10.2-10.2
				c-5.6,0-10.2,4.6-10.2,10.2h-4.2c-2.2,0-4,1.8-4,4v16.7C127.9,111.1,129.7,112.9,131.9,112.9z M146.3,83.6c2.5,0,4.5,2,4.6,4.5
				h-9.1C141.8,85.7,143.8,83.6,146.3,83.6z"/>
			<path id="XMLID_21_" class="st1" d="M227.8,104.9c-0.1-0.7-0.6-1.4-1.2-1.8l-7.3-5.1c-0.5-0.3-1.1-0.5-1.6-0.5
				c-0.9,0-1.8,0.4-2.3,1.2l-51.6,73.9l11.9,8.3l51.6-73.9C227.7,106.4,227.9,105.6,227.8,104.9z"/>
			<path id="XMLID_20_" class="st1" d="M155.7,184.7l0.7,8.7c0,0.5,0.3,0.9,0.7,1.2c0.3,0.2,0.6,0.3,1,0.3c0.1,0,0.3,0,0.4-0.1
				l8.4-2.3c0.4-0.1,0.7-0.3,0.9-0.7l3.2-4.5l-11.9-8.3l-3.2,4.5C155.8,183.9,155.7,184.3,155.7,184.7z"/>
		</g>
	</g>
	<g id="XMLID_17_">
	</g>
	<g id="XMLID_16_">
	</g>
	<g id="XMLID_15_">
	</g>
	<g id="XMLID_14_">
	</g>
	<g id="XMLID_13_">
	</g>
	<g id="XMLID_12_">
	</g>
	<g id="XMLID_11_">
	</g>
	<g id="XMLID_10_">
	</g>
	<g id="XMLID_9_">
	</g>
	<g id="XMLID_8_">
	</g>
	<g id="XMLID_7_">
	</g>
	<g id="XMLID_6_">
	</g>
	<g id="XMLID_5_">
	</g>
	<g id="XMLID_4_">
	</g>
	<g id="XMLID_3_">
	</g>
</g>
</svg>
