<?xml version="1.0" encoding="utf-8"?>
<!-- Generator: Adobe Illustrator 19.0.0, SVG Export Plug-In . SVG Version: 6.00 Build 0)  -->
<svg version="1.1" id="Capa_1" xmlns="http://www.w3.org/2000/svg" xmlns:xlink="http://www.w3.org/1999/xlink" x="0px" y="0px"
	 viewBox="6 -6 512 512" style="enable-background:new 6 -6 512 512;" xml:space="preserve">
<style type="text/css">
	.st0{fill:#FFFFFF;}
</style>
<g>
	<g id="more-vert">
		<path class="st0" d="M262,122c35.2,0,64-28.8,64-64S297.2-6,262-6s-64,28.8-64,64S226.8,122,262,122z M262,186
			c-35.2,0-64,28.8-64,64s28.8,64,64,64s64-28.8,64-64S297.2,186,262,186z M262,378c-35.2,0-64,28.8-64,64s28.8,64,64,64
			s64-28.8,64-64S297.2,378,262,378z"/>
	</g>
</g>
</svg>
