<svg width="545" height="493" xmlns="http://www.w3.org/2000/svg">

 <g>
  <title>background</title>
  <rect fill="none" id="canvas_background" height="495" width="547" y="-1" x="-1"/>
 </g>
 <g>
  <title>Layer 1</title>
  <ellipse ry="145.564624" rx="147.177528" id="svg_19" cy="240.854835" cx="238.629013" fill-opacity="null" stroke-opacity="null" stroke-width="7.5" stroke="#ffffff" fill="none"/>
  <g stroke="null" id="svg_43">
   <g stroke="null" transform="matrix(0.2744194137438682,0,0,0.3417744826075371,-51.74817823185563,-184.44656669391406) " id="svg_24">
    <g stroke="null" id="svg_25">
     <path stroke="null" id="svg_26" fill="#FFFFFF" d="m1007.334963,1036.504432l-146.177,0c-4.952,0 -9.235,1.807 -12.851,5.424c-3.617,3.616 -5.424,7.898 -5.424,12.847l0,401.991c0,4.948 1.807,9.233 5.424,12.847c3.619,3.617 7.902,5.428 12.851,5.428l146.181,0c4.949,0 9.231,-1.811 12.847,-5.428c3.617,-3.613 5.424,-7.898 5.424,-12.847l0,-401.991c0,-4.952 -1.807,-9.231 -5.428,-12.847c-3.615,-3.617 -7.898,-5.424 -12.847,-5.424z"/>
     <path stroke="null" id="svg_27" fill="#FFFFFF" d="m1275.994963,1041.928432c-3.617,-3.617 -7.898,-5.424 -12.846,-5.424l-146.181,0c-4.949,0 -9.237,1.807 -12.847,5.424c-3.621,3.615 -5.432,7.898 -5.432,12.847l0,401.991c0,4.948 1.811,9.233 5.432,12.847c3.609,3.617 7.897,5.428 12.847,5.428l146.181,0c4.948,0 9.229,-1.811 12.847,-5.428c3.614,-3.613 5.421,-7.898 5.421,-12.847l0,-401.991c-0.001,-4.952 -1.805,-9.231 -5.422,-12.847z"/>
    </g>
   </g>
   <g stroke="null" transform="matrix(0.2744194137438682,0,0,0.3417744826075371,-51.74817823185563,-184.44656669391406) " id="svg_28"/>
   <g stroke="null" transform="matrix(0.2744194137438682,0,0,0.3417744826075371,-51.74817823185563,-184.44656669391406) " id="svg_29"/>
   <g stroke="null" transform="matrix(0.2744194137438682,0,0,0.3417744826075371,-51.74817823185563,-184.44656669391406) " id="svg_30"/>
   <g stroke="null" transform="matrix(0.2744194137438682,0,0,0.3417744826075371,-51.74817823185563,-184.44656669391406) " id="svg_31"/>
   <g stroke="null" transform="matrix(0.2744194137438682,0,0,0.3417744826075371,-51.74817823185563,-184.44656669391406) " id="svg_32"/>
   <g stroke="null" transform="matrix(0.2744194137438682,0,0,0.3417744826075371,-51.74817823185563,-184.44656669391406) " id="svg_33"/>
   <g stroke="null" transform="matrix(0.2744194137438682,0,0,0.3417744826075371,-51.74817823185563,-184.44656669391406) " id="svg_34"/>
   <g stroke="null" transform="matrix(0.2744194137438682,0,0,0.3417744826075371,-51.74817823185563,-184.44656669391406) " id="svg_35"/>
   <g stroke="null" transform="matrix(0.2744194137438682,0,0,0.3417744826075371,-51.74817823185563,-184.44656669391406) " id="svg_36"/>
   <g stroke="null" transform="matrix(0.2744194137438682,0,0,0.3417744826075371,-51.74817823185563,-184.44656669391406) " id="svg_37"/>
   <g stroke="null" transform="matrix(0.2744194137438682,0,0,0.3417744826075371,-51.74817823185563,-184.44656669391406) " id="svg_38"/>
   <g stroke="null" transform="matrix(0.2744194137438682,0,0,0.3417744826075371,-51.74817823185563,-184.44656669391406) " id="svg_39"/>
   <g stroke="null" transform="matrix(0.2744194137438682,0,0,0.3417744826075371,-51.74817823185563,-184.44656669391406) " id="svg_40"/>
   <g stroke="null" transform="matrix(0.2744194137438682,0,0,0.3417744826075371,-51.74817823185563,-184.44656669391406) " id="svg_41"/>
   <g stroke="null" transform="matrix(0.2744194137438682,0,0,0.3417744826075371,-51.74817823185563,-184.44656669391406) " id="svg_42"/>
  </g>
  <g id="svg_3"/>
  <g id="svg_4"/>
  <g id="svg_5"/>
  <g id="svg_6"/>
  <g id="svg_7"/>
  <g id="svg_8"/>
  <g id="svg_9"/>
  <g id="svg_10"/>
  <g id="svg_11"/>
  <g id="svg_12"/>
  <g id="svg_13"/>
  <g id="svg_14"/>
  <g id="svg_15"/>
  <g id="svg_16"/>
  <g id="svg_17"/>
 </g>
</svg>