<?xml version="1.0" encoding="utf-8"?>
<!-- Generator: Adobe Illustrator 19.0.0, SVG Export Plug-In . SVG Version: 6.00 Build 0)  -->
<svg version="1.1" id="Layer_1" xmlns="http://www.w3.org/2000/svg" xmlns:xlink="http://www.w3.org/1999/xlink" x="0px" y="0px"
	 viewBox="0 0 300 300" style="enable-background:new 0 0 300 300;" xml:space="preserve">
<style type="text/css">
	.st0{fill:#FFFFFF;}
</style>
<path id="XMLID_1_" class="st0" d="M114.4,296.9H20.2c-6.6,0-12-5.4-12-12V15.1c0-6.6,5.4-12,12-12h94.2c6.6,0,12,5.4,12,12v269.9
	C126.4,291.5,121,296.9,114.4,296.9z"/>
<path id="XMLID_3_" class="st0" d="M284.2,296.9h-95.9c-6.6,0-12-5.4-12-12V15.1c0-6.6,5.4-12,12-12h95.9c6.6,0,12,5.4,12,12v269.9
	C296.2,291.5,290.8,296.9,284.2,296.9z"/>
</svg>
