<svg width="184" height="235" viewBox="0 0 184 235" fill="none" xmlns="http://www.w3.org/2000/svg">
<path d="M165.5 145.2C165.5 185.13 129.5 217.8 90 217.8C42 217.8 17.625 185.13 17.625 145.2C17.625 105.27 50.1938 72.6 90 72.6V121L150.312 60.5L90 0V55C36.925 55 0 91.96 0 145.2C0 198.44 36.925 234.5 90 234.5C143.075 234.5 183.5 198.44 183.5 145.2H165.5Z" transform="translate(183.5) scale(-1 1)" fill="white"/>
<path d="M49.9995 56H39.9805V17.3799L28.02 21.0894V12.9424L48.9248 5.4541H49.9995V56ZM100.407 35.1299C100.407 42.1097 98.9622 47.4486 96.0732 51.1465C93.1842 54.8444 88.9547 56.6934 83.3848 56.6934C77.8841 56.6934 73.6777 54.8791 70.7656 51.2505C67.8535 47.6219 66.3628 42.4217 66.2935 35.6499V26.3589C66.2935 19.3097 67.7495 13.9593 70.6616 10.3076C73.5968 6.65592 77.8148 4.83008 83.3154 4.83008C88.8161 4.83008 93.0225 6.64437 95.9346 10.2729C98.8467 13.8784 100.337 19.0671 100.407 25.8389V35.1299ZM90.3877 24.9375C90.3877 20.7542 89.8099 17.715 88.6543 15.8198C87.5218 13.9015 85.7422 12.9424 83.3154 12.9424C80.958 12.9424 79.213 13.8553 78.0806 15.6812C76.9712 17.4839 76.3818 20.3151 76.3125 24.1748V36.4473C76.3125 40.5612 76.8672 43.6235 77.9766 45.6343C79.109 47.6219 80.9118 48.6157 83.3848 48.6157C85.8346 48.6157 87.6027 47.6566 88.689 45.7383C89.7752 43.82 90.3415 40.8848 90.3877 36.9326V24.9375Z" transform="translate(29 119)" fill="white"/>
</svg>
